<svg xmlns="http://www.w3.org/2000/svg" width="686.001" height="20" viewBox="0 0 686.001 20">
  <g id="그룹_72" data-name="그룹 72" transform="translate(-297 -651)" style="isolation: isolate">
    <path id="사각형_25" data-name="사각형 25" d="M10,0H76.222a0,0,0,0,1,0,0V20a0,0,0,0,1,0,0H10A10,10,0,0,1,0,10v0A10,10,0,0,1,10,0Z" transform="translate(297 651)" fill="#82d800"/>
    <rect id="사각형_27" data-name="사각형 27" width="76.222" height="20" transform="translate(373.223 651)" fill="#6cb400"/>
    <rect id="사각형_28" data-name="사각형 28" width="76.222" height="20" transform="translate(449.445 651)" fill="#549400"/>
    <rect id="사각형_29" data-name="사각형 29" width="76.222" height="20" transform="translate(525.668 651)" fill="#75d9ff"/>
    <rect id="사각형_30" data-name="사각형 30" width="76.222" height="20" transform="translate(601.889 651)" fill="#23c2ff"/>
    <rect id="사각형_31" data-name="사각형 31" width="76.222" height="20" transform="translate(678.111 651)" fill="#08f"/>
    <rect id="사각형_32" data-name="사각형 32" width="76.222" height="20" transform="translate(754.334 651)" fill="#ffd153"/>
    <rect id="사각형_33" data-name="사각형 33" width="76.222" height="20" transform="translate(830.556 651)" fill="#ffb300"/>
    <path id="사각형_26" data-name="사각형 26" d="M0,0H66.222a10,10,0,0,1,10,10v0a10,10,0,0,1-10,10H0a0,0,0,0,1,0,0V0A0,0,0,0,1,0,0Z" transform="translate(906.778 651)" fill="#f90"/>
  </g>
</svg>
