<svg xmlns="http://www.w3.org/2000/svg" width="519.938" height="145.375" viewBox="0 0 519.938 145.375">
  <g id="그룹_92" data-name="그룹 92" transform="translate(-5558.031 4708.933)">
    <g id="그룹_72" data-name="그룹 72" transform="translate(3875.45 -4822)">
      <g id="그룹_71" data-name="그룹 71" transform="translate(1728.203 224.613)">
        <path id="패스_71" data-name="패스 71" d="M116.265,346.825v25.2H86.5V338.2h29.763Z" transform="translate(-86.502 -338.195)" fill="#840000"/>
        <path id="패스_72" data-name="패스 72" d="M392.457,346.825v25.2H362.694V338.2h29.763Z" transform="translate(41.037 -338.195)" fill="#840000"/>
      </g>
      <path id="패스_73" data-name="패스 73" d="M525.35,222.42H96.657V107.053c0-2.645,6.159-4.808,13.687-4.808h401.32c7.529,0,13.687,2.163,13.687,4.808V222.42Z" transform="translate(1631.546 10.822)" fill="#ff2121"/>
      <path id="패스_74" data-name="패스 74" d="M45.775,188.058H.153l11.508,52.4L.153,292.865H70.737l-24.962-25.2Z" transform="translate(1682.428 -34.423)" fill="#ff7b7b"/>
      <path id="패스_75" data-name="패스 75" d="M387.656,188.058h45.622l-11.508,52.4,11.508,52.4H362.694l24.817-25.2Z" transform="translate(1769.241 -34.423)" fill="#ff7b7b"/>
    </g>
    <path id="패스_81" data-name="패스 81" d="M4.83-36.26q1.75-.07,4.13-.21t4.865-.245q2.485-.1,4.865-.175t4.27-.07a4.855,4.855,0,0,1,2.695.595,2.482,2.482,0,0,1,.875,2.2,5.735,5.735,0,0,1-1.12,2.73,22.361,22.361,0,0,1-3.5,3.99l-1.4,1.33a2.765,2.765,0,0,1,.875.42q.385.28.945.77,1.82,1.61,3.43,3.15a35.557,35.557,0,0,1,3.08,3.36q1.47,1.68.21,2.94a2.27,2.27,0,0,1-1.575.77,2.668,2.668,0,0,1-1.925-.77q-2.1-1.75-3.535-3.045T19.18-21.21q-.49-.56-.875-1.015T17.43-23.31q-.77.77-1.855,1.785T13.3-19.46q-1.19,1.05-2.45,2.1T8.47-15.47a4.349,4.349,0,0,1-2.2.77,2.31,2.31,0,0,1-2.135-.77,2.183,2.183,0,0,1-.63-1.68,3.232,3.232,0,0,1,.63-1.68,3.587,3.587,0,0,1,1.855-1.26A4.944,4.944,0,0,0,7.91-21.14q3.57-3.15,6.475-5.845T20.23-32.34q-1.26,0-3.115.175t-3.955.35l-4.235.35Q6.79-31.29,4.9-31.29q-3.15,0-3.15-2.45Q1.75-36.12,4.83-36.26ZM45.01-21.98q.07,2.1,0,4.13t-.175,3.815q-.1,1.785-.245,3.22T44.38-8.47a45.457,45.457,0,0,1-.63,5.11,3.391,3.391,0,0,1-1.085,2A2.765,2.765,0,0,1,40.53-.84q-2.59-.35-2.17-3.15.56-4.48.875-9.345T39.55-22.4q0-1.47-.035-3.43t-.14-3.99q-.1-2.03-.245-3.99t-.35-3.5a4.449,4.449,0,0,1,.28-2.555,2.354,2.354,0,0,1,1.68-1.295,2.191,2.191,0,0,1,2.17.42,4,4,0,0,1,1.12,2.31q.14.91.28,2.73t.28,4.13q.14,2.31.245,4.8T45.01-21.98ZM13.79-11.97a10.213,10.213,0,0,1-.28-2.59,2.173,2.173,0,0,1,2.03-2.45,2.421,2.421,0,0,1,2.87,2.31q.14.77.315,1.925t.385,2.415q.21,1.26.42,2.45t.35,2.1v.07l11.34-.77q2.45-.14,2.59,1.96a1.8,1.8,0,0,1-.49,1.4,2.877,2.877,0,0,1-1.68.84q-1.19.21-2.905.42t-3.675.35q-1.96.14-4.025.245T17.15-1.19q-1.33,0-2.835-.035t-2.975-.14Q9.87-1.47,8.54-1.68a12.9,12.9,0,0,1-2.31-.56A4.067,4.067,0,0,1,4.655-3.325,1.948,1.948,0,0,1,4.2-5.11,1.857,1.857,0,0,1,6.23-6.86a3.181,3.181,0,0,1,1.225.28,6.722,6.722,0,0,0,1.5.42q.77.14,2.1.315a30.943,30.943,0,0,0,3.78.175Zm4.2-29.4H15.26q-1.47,0-3.01-.035t-2.975-.1q-1.435-.07-2.625-.14A2.529,2.529,0,0,1,4.8-42.49a2.891,2.891,0,0,1-.665-1.96A1.963,1.963,0,0,1,4.9-46.1a3.385,3.385,0,0,1,2.38-.455q1.05.07,2.31.14t2.625.1q1.365.035,2.73,0t2.555-.1a3.417,3.417,0,0,1,2.59.56,2.7,2.7,0,0,1,.77,2.1A2.1,2.1,0,0,1,20.055-42,3.251,3.251,0,0,1,17.99-41.37Zm66.22,6.65q.14,3.57-.07,7.07t-.35,7.14q-.07.77-.07,1.61a8.988,8.988,0,0,0,.14,1.61,3.231,3.231,0,0,1-.49,2,2.291,2.291,0,0,1-1.96.945,2.607,2.607,0,0,1-2.1-.595,3.389,3.389,0,0,1-1.05-2.135,6.179,6.179,0,0,1,0-1.855q.14-.945.35-1.925,0-3.01.035-5.705T78.68-32.9a5.684,5.684,0,0,0-.49-2.485q-.49-1.015-2.45-.875-1.75.07-4.025.105T67.06-36.19q-2.38-.07-4.76-.175t-4.34-.315A13.843,13.843,0,0,0,56-36.82a4.185,4.185,0,0,1-1.75-.35,2.844,2.844,0,0,1-.945-1.015A2.666,2.666,0,0,1,53.06-39.9a2.994,2.994,0,0,1,.91-1.61,2.253,2.253,0,0,1,1.96-.63q.91.14,1.785.245a7.366,7.366,0,0,1,1.645.385,28.058,28.058,0,0,0,3.29.315q2.1.105,4.655.175t5.46.035q2.905-.035,5.635-.1,3.29-.07,4.48,1.54A8.761,8.761,0,0,1,84.21-34.72ZM62.02-16.31a3.781,3.781,0,0,1,.665-2.17A2.664,2.664,0,0,1,64.75-19.6a2.611,2.611,0,0,1,2.135.595,3.049,3.049,0,0,1,.945,2,4.081,4.081,0,0,1,.035,1.4q-.1.63-.245,1.33a5.474,5.474,0,0,0-.105,1.365,11.409,11.409,0,0,0,.175,1.435q.14,1.33.455,3.255T68.74-5.25q1.82-.07,4.34-.14t5.04-.07q2.52,0,4.725.035t3.325.105q2.8.07,2.8,2.52a1.873,1.873,0,0,1-.945,1.785A4.775,4.775,0,0,1,85.68-.49q-3.15,0-6.895.035t-7.6.1q-3.85.07-7.455.21T57.26.21a29.062,29.062,0,0,1-3.08.21,4.231,4.231,0,0,1-2.205-.49A1.953,1.953,0,0,1,51.1-1.75q-.14-2.17,2.73-2.52,2.31-.28,4.76-.455t4.9-.315q-.21-1.26-.455-2.8l-.49-3.08q-.245-1.54-.385-2.94T62.02-16.31ZM100.8-9.17q1.68-2.31,3.815-5.39t4.41-6.405q2.275-3.325,4.585-6.65t4.34-6.125q-3.99-.21-9.03-.385t-11.2-.735a2.641,2.641,0,0,1-2.345-1.295A3.063,3.063,0,0,1,95.13-38.5a3.135,3.135,0,0,1,1.015-1.365,2.478,2.478,0,0,1,1.925-.455,8.2,8.2,0,0,1,1.575.28,8.205,8.205,0,0,0,1.575.28q4.83.49,9.415.735t9.065.385a5.106,5.106,0,0,1,2.66.6,3.161,3.161,0,0,1,1.365,1.61,4.107,4.107,0,0,1,.14,2.275,6.943,6.943,0,0,1-1.085,2.52q-2.1,3.36-4.34,6.685l-4.34,6.44Q112-15.4,110.11-12.7T106.68-7.91q-.21.77-.525,1.68a6.618,6.618,0,0,1-1.085,1.89,4.56,4.56,0,0,1-2.73,1.785,3.19,3.19,0,0,1-2.66-.735,2.706,2.706,0,0,1-.875-2.765A6.6,6.6,0,0,1,100.8-9.17ZM140-.84a2.388,2.388,0,0,1-.56,1.75,3.608,3.608,0,0,1-1.75.84,2.831,2.831,0,0,1-2.275-.6A2.713,2.713,0,0,1,134.54-.77a7.106,7.106,0,0,1-.07-1.68q.07-.7.07-1.47,0-1.4-.07-3.885t-.21-5.5q-.14-3.01-.315-6.265t-.315-6.2q-.14-2.94-.28-5.355t-.21-3.745l-.28-2.24q-.14-1.12-.28-2.1a2.685,2.685,0,0,1,.28-1.89,2.218,2.218,0,0,1,1.89-1.05q2.73-.35,3.22,2.66l.56,3.5q.14,1.4.28,3.885t.245,5.53q.105,3.045.245,6.37t.21,6.405q.07,3.08.1,5.67t.035,4.2q.07.56.14,1.54A9.431,9.431,0,0,0,140-.84Zm15.12-46.9q3.29-.07,6.44-.245t7.28-.455q1.19-.14,2.45-.21t1.89-.14a5.715,5.715,0,0,1,2.38.28,2.45,2.45,0,0,1,1.19,1.89q.14.77.245,1.995t.14,2.59q.035,1.365.035,2.73t-.07,2.415a3.409,3.409,0,0,1-.735,2.24,3.489,3.489,0,0,1-2.275.84,6.029,6.029,0,0,1-.98.07h-1.33q-1.89,0-3.535.035l-3.255.07-3.22.07q-1.61.035-3.5.035a8.881,8.881,0,0,0-.42,1.96q-.14,1.19-.21,2.03a2.331,2.331,0,0,0,.14,1.3q.21.315,1.19.385.77.07,1.82.105t1.96.035h2.73q1.05,0,1.89.035t1.68.035h2.03q2.1,0,3.57.035a23.027,23.027,0,0,1,2.87.245q3.71.35,3.64,2.59a2.056,2.056,0,0,1-1.015,1.82,4.906,4.906,0,0,1-2.135.42,9.833,9.833,0,0,1-1.925-.175q-.875-.175-1.295-.245a27.6,27.6,0,0,0-2.765-.175q-1.645-.035-3.465-.035.14,1.4.245,3.115t.175,3.115q1.75,0,3.955.035t4.34.14q2.135.105,4.025.21t3.08.245q2.8.21,2.8,2.45,0,2.1-3.01,2.03-.63,0-2.135-.1l-3.465-.245q-1.96-.14-4.2-.28t-4.34-.21q-2.31-.07-4.76-.1t-4.69-.035q-2.24,0-4.2.035t-3.29.175a8.3,8.3,0,0,0-1.75.35,6.39,6.39,0,0,1-1.89.28,4.942,4.942,0,0,1-2.275-.6,2.068,2.068,0,0,1-1.155-1.995,1.973,1.973,0,0,1,.91-1.82,5.786,5.786,0,0,1,2.52-.7q1.05-.07,2.87-.07h3.885q2.065,0,4.165.035t3.85.035q-.07-1.33-.175-2.94t-.1-3.15h-.14q-1.82,0-3.71-.035t-3.29-.1a5.152,5.152,0,0,1-3.22-1.05q-.98-.91-.91-3.36.07-1.96.315-4.165a32.367,32.367,0,0,1,.665-3.955,2.9,2.9,0,0,1,1.05-1.925,4.652,4.652,0,0,1,2.38-.6q3.36-.07,6.755-.1t7.245-.175a1.176,1.176,0,0,0,1.33-1.33q0-.98-.07-1.785a6.26,6.26,0,0,0-.28-1.435.729.729,0,0,0-.84-.7q-1.47.14-3.185.28t-3.255.28l-4.445.28a39.857,39.857,0,0,1-4.725,0,3.568,3.568,0,0,1-2.345-.63,2.881,2.881,0,0,1-.945-1.68,2.023,2.023,0,0,1,.665-1.68A2.98,2.98,0,0,1,155.12-47.74Zm23.59,53.2a8.932,8.932,0,0,0,.21,2.065,7.927,7.927,0,0,1,.21,1.855,4.733,4.733,0,0,1-.525,2.38,2.033,2.033,0,0,1-1.785.98q-2.8.07-3.01-3.85-.07-1.19-.07-2.38V3.22q0-.98.035-2.415t.035-2.555q0-.84-1.05-.84h-6.37q-2.03,0-4.97-.07t-5.6-.28a3.331,3.331,0,0,1-2.17-.875,2.409,2.409,0,0,1-.7-1.715q0-2.1,2.8-2.03,3.36.14,7.035.21t8.085.07h4.34a5.64,5.64,0,0,1,2.45.42,2.3,2.3,0,0,1,1.05,1.89q.07.84.07,2.205V.105q0,1.505-.035,2.94T178.71,5.46ZM213.15-13.3a3.573,3.573,0,0,1,1.995-.98,15.007,15.007,0,0,1,3.01-.28,25.14,25.14,0,0,1,3.255.21,24.585,24.585,0,0,1,2.73.49,13.839,13.839,0,0,1,6.58,3.5q2.31,2.38,2.17,6.79a11.778,11.778,0,0,1-.665,3.5A8.64,8.64,0,0,1,230.3,3.01a12.168,12.168,0,0,1-3.325,2.45,18.522,18.522,0,0,1-4.13,1.505,28.872,28.872,0,0,1-4.48.7,29.623,29.623,0,0,1-4.305.035,28.456,28.456,0,0,1-4.585-.7,15.778,15.778,0,0,1-4.445-1.75,11,11,0,0,1-3.395-3.08A8.163,8.163,0,0,1,200.2-2.52a8.041,8.041,0,0,1,.77-3.71,11.842,11.842,0,0,1,2.31-3.325,13.539,13.539,0,0,1,3.5-2.555,13.918,13.918,0,0,1,4.34-1.4,2.824,2.824,0,0,1,1.05-.07A5.376,5.376,0,0,1,213.15-13.3Zm3.43-10.78a2.271,2.271,0,0,1-1.995-.735,2.349,2.349,0,0,1-.6-1.715,2.815,2.815,0,0,1,.56-1.435,1.759,1.759,0,0,1,1.33-.735q1.05-.07,2.415-.14t2.87-.07q1.505,0,3.01.035t2.7.105v-4.41q-2.17,0-4.62.035t-5.18.1a2.727,2.727,0,0,1-1.96-.56,2.136,2.136,0,0,1-.77-1.75,2.153,2.153,0,0,1,.8-1.68,3.529,3.529,0,0,1,2.205-.77l9.52-.21q0-1.82-.035-3.43t-.035-2.38q0-2.66,2.17-2.73a2.678,2.678,0,0,1,1.75.455,2.337,2.337,0,0,1,.91,1.785q.14,1.68.14,5.075t-.035,7.245q-.035,3.85-.1,7.42t-.07,5.53a2.554,2.554,0,0,1-.63,1.715,2.635,2.635,0,0,1-2.1.735,1.928,1.928,0,0,1-1.785-1.05,4.422,4.422,0,0,1-.525-2.45q0-.49.035-1.155t.1-1.33q.07-.665.105-1.155t.035-.63q-2.59-.07-5.46.035T216.58-24.08Zm-20.86-21q1.68-.14,4.06-.21l4.83-.14q2.45-.07,4.76-.035t3.92.1a3.715,3.715,0,0,1,2.065.525,2.79,2.79,0,0,1,1.12,1.33,3.357,3.357,0,0,1,.14,1.82,5.368,5.368,0,0,1-.805,2q-3.15,4.48-6.545,10.045T202.3-18.13a14.823,14.823,0,0,1-1.19,2.17,2.4,2.4,0,0,1-2.03,1.05,4.129,4.129,0,0,1-2.38-.77,2.317,2.317,0,0,1-.945-1.505,3.658,3.658,0,0,1,.175-1.925,2.833,2.833,0,0,1,1.12-1.33,3.417,3.417,0,0,0,1.19-1.26q1.47-2.45,3.185-5.04t3.29-5.005q1.575-2.415,2.9-4.375t2.03-3.15q.63-1.19.49-1.4t-1.54-.21q-1.54,0-3.465.035t-3.745.1q-1.82.07-3.36.1t-2.31.035a2.27,2.27,0,0,1-1.785-.56,2.234,2.234,0,0,1-.735-1.47Q193.06-44.73,195.72-45.08ZM226.31-.49a6.891,6.891,0,0,0,1.3-2.94,4.326,4.326,0,0,0-.35-2.45,4.788,4.788,0,0,0-1.715-1.925,11.719,11.719,0,0,0-2.87-1.365,8.569,8.569,0,0,0-2.065-.455q-1.085-.1-2.205-.105a16.757,16.757,0,0,0-2.275.14,4.078,4.078,0,0,1-1.715-.07,10.679,10.679,0,0,0-3.71,1.05,14.745,14.745,0,0,0-3.745,2.59,4.725,4.725,0,0,0-1.365,3.85,3.762,3.762,0,0,0,.8,2.135,7.012,7.012,0,0,0,1.96,1.68,10.1,10.1,0,0,0,2.765,1.12,13.229,13.229,0,0,0,3.22.385q1.68,0,3.465-.14a20.239,20.239,0,0,0,3.43-.56,13.579,13.579,0,0,0,2.975-1.12A5.725,5.725,0,0,0,226.31-.49ZM253.4-35q1.05.98,2.24,2.03t2.345,2.065q1.155,1.015,2.2,1.89t1.82,1.505A21.808,21.808,0,0,1,263.9-25.8a12.467,12.467,0,0,1,1.19,1.435,3.673,3.673,0,0,1,.77,2.2,2.294,2.294,0,0,1-.84,1.855,2.85,2.85,0,0,1-2.065.6,3.578,3.578,0,0,1-2.135-1.015,8.337,8.337,0,0,1-.91-1.19q-.56-.84-.84-1.33-.77-.7-1.785-1.61t-2.1-1.925q-1.085-1.015-2.17-1.96T251.02-30.52q-1.75,3.15-3.43,6.195t-3.22,5.355q-1.68,2.59-4.06,1.68a1.875,1.875,0,0,1-1.33-1.68,3.993,3.993,0,0,1,.91-2.73q1.68-2.38,3.43-5.39t3.43-6.195q1.68-3.185,3.325-6.335t3.185-5.95a3.75,3.75,0,0,1,1.75-1.715,2.68,2.68,0,0,1,2.03-.1,2.1,2.1,0,0,1,1.33,1.47,3.028,3.028,0,0,1-.35,2.24Zm.7,41.65a8.082,8.082,0,0,1-2.45-.07,2.381,2.381,0,0,1-1.4-.84,3.2,3.2,0,0,1-.6-1.68,18.332,18.332,0,0,1-.035-2.59q.14-2.17.1-3.57t-.035-3.15a6.37,6.37,0,0,0-.21-1.68q-.21-.77-.42-1.4-.77-3.29,2.1-3.92a2.631,2.631,0,0,1,2.415.6A3.849,3.849,0,0,1,254.66-9.03q.14,2.31.21,4.41t.21,3.92q-.07.91-.07,1.4a.966.966,0,0,0,.21.7,1.2,1.2,0,0,0,.77.245q.56.035,1.54.035,1.4,0,4.025-.14t5.67-.28q3.045-.14,6.09-.21t5.285.07a8.106,8.106,0,0,0,1.505,0,5.478,5.478,0,0,1,1.505.07,3.1,3.1,0,0,1,2.1,1.12,2.67,2.67,0,0,1,.56,2.03,2.542,2.542,0,0,1-.98,1.715,3.066,3.066,0,0,1-1.96.665,4.093,4.093,0,0,1-1.225-.21q-.665-.21-1.225-.35-2.45-.21-6.02-.175t-7.21.14q-3.64.1-6.825.28T254.1,6.65Zm21.56-27.51q-.21-2.31-.35-5.285t-.14-6.125q0-3.15.07-6.23t.28-5.6q.35-2.52,2.52-2.52a2.43,2.43,0,0,1,1.785.735,2.587,2.587,0,0,1,.665,2.065q-.14,3.43-.245,6.965t-.1,7.6q0,2.24.175,4.445t.175,4.305a2,2,0,0,1-.7,1.715,2.612,2.612,0,0,1-1.61.525,2.425,2.425,0,0,1-1.68-.63A2.949,2.949,0,0,1,275.66-20.86Zm21.7-26.25q0-2.87,2.59-2.87a2.476,2.476,0,0,1,1.715.665,2.439,2.439,0,0,1,.8,1.715q.14,3.64-.1,7.7t-.525,7.21q-.14,1.61-.245,4.585t-.21,6.405q-.105,3.43-.175,6.755t-.07,5.635a5.9,5.9,0,0,1-.42,2.275,1.883,1.883,0,0,1-1.68,1.155,2.528,2.528,0,0,1-2.1-.875,4.546,4.546,0,0,1-.84-2.485q-.14-2.17-.14-5.53t.07-6.9q.07-3.535.21-6.72t.35-5.005q.14-1.47.28-3.29t.245-3.675q.1-1.855.175-3.605T297.36-47.11ZM294,3.15a4.32,4.32,0,0,1,1.19-3.535,4.743,4.743,0,0,1,3.64-1.505,4.6,4.6,0,0,1,1.715.35A5.657,5.657,0,0,1,302.12-.6a5.145,5.145,0,0,1,1.155,1.4,3.431,3.431,0,0,1,.455,1.715,4.767,4.767,0,0,1-.35,1.785,5.658,5.658,0,0,1-.945,1.575,5.146,5.146,0,0,1-1.4,1.155,3.431,3.431,0,0,1-1.715.455,5.357,5.357,0,0,1-3.57-1.12A4.474,4.474,0,0,1,294,3.15Z" transform="translate(5664.031 -4628)" fill="#fff"/>
  </g>
</svg>
