<svg xmlns="http://www.w3.org/2000/svg" xmlns:xlink="http://www.w3.org/1999/xlink" width="143.783" height="121.836" viewBox="0 0 143.783 121.836">
  <defs>
    <filter id="패스_77" x="0" y="0" width="143.783" height="121.836" filterUnits="userSpaceOnUse">
      <feOffset dy="3" input="SourceAlpha"/>
      <feGaussianBlur stdDeviation="3" result="blur"/>
      <feFlood flood-opacity="0.161"/>
      <feComposite operator="in" in2="blur"/>
      <feComposite in="SourceGraphic"/>
    </filter>
  </defs>
  <g id="그룹_89" data-name="그룹 89" transform="translate(-6176.925 4665.043)">
    <g transform="matrix(1, 0, 0, 1, 6176.93, -4665.04)" filter="url(#패스_77)">
      <path id="패스_77-2" data-name="패스 77" d="M92.533,46.287A61.663,61.663,0,0,1,77.817,55.3a11.835,11.835,0,0,1-4.948,1.258c-6.59-.185-8.232-8.528-11.061-14.188C57.3,33.352,45.19,29,35.081,31.7S17.34,43.155,14.943,52.872,14.911,73,19.953,81.757c2.123,3.686,4.736,7.2,5.907,11.252,2.069,7.153-.209,16.02,5.39,21.19C34.3,117.013,38.8,117.728,43,118.31c13.769,1.9,28.012,3.783,41.42.247,8.392-2.211,16.014-6.446,23.417-10.8,9.478-5.579,19.12-11.773,24.636-20.978,7.576-12.648,5.871-28.362,2.638-42.589-.542-2.384-1.312-5.02-3.524-6.257-5.035-2.816-12.973,3.829-16.643-.489a8.439,8.439,0,0,1-1.423-3.949c-1.734-8.484-10.23-16.974-18.848-14.211-5.152,1.653-8.324,6.947-8.537,12.11s2.035,10.156,4.921,14.536" transform="translate(-3.93 -11.71)" fill="#0bfff3" stroke="#000" stroke-miterlimit="10" stroke-width="2"/>
    </g>
    <path id="패스_83" data-name="패스 83" d="M8.3-3.887a1.174,1.174,0,0,1,.656-.322A4.931,4.931,0,0,1,9.948-4.3a8.26,8.26,0,0,1,1.069.069,8.078,8.078,0,0,1,.9.161,4.547,4.547,0,0,1,2.162,1.15A2.931,2.931,0,0,1,14.789-.69,3.87,3.87,0,0,1,14.571.46a2.839,2.839,0,0,1-.633,1.012,4,4,0,0,1-1.092.805,6.086,6.086,0,0,1-1.357.494A9.487,9.487,0,0,1,10.017,3,9.733,9.733,0,0,1,8.6,3.013,9.35,9.35,0,0,1,7.1,2.783a5.184,5.184,0,0,1-1.461-.575A3.616,3.616,0,0,1,4.52,1.2,2.682,2.682,0,0,1,4.048-.345,2.642,2.642,0,0,1,4.3-1.564,3.891,3.891,0,0,1,5.06-2.657,4.448,4.448,0,0,1,6.21-3.5a4.573,4.573,0,0,1,1.426-.46.928.928,0,0,1,.345-.023A1.766,1.766,0,0,1,8.3-3.887ZM1.587-15.341a19.1,19.1,0,0,0,2.162.149q1.058.012,1.725-.035l1.081-.046a1.675,1.675,0,0,1,.9.115.947.947,0,0,1,.391.736,6.554,6.554,0,0,1,.069.7q.023.426.023.874t-.012.84q-.012.391-.034.621-.046.529-.081.84a1.368,1.368,0,0,1-.126.483.507.507,0,0,1-.265.242,1.648,1.648,0,0,1-.471.092q-.138,0-.333-.012t-.449-.012q-.966,0-1.794-.011T2.9-9.752q-.023.253-.046.61t-.035.7q-.012.345-.011.644t0,.46a.924.924,0,0,0,.057.425.513.513,0,0,0,.311.126,6.613,6.613,0,0,0,.747.057q.425.012.851.011H6.647q.3,0,.609-.011t.587-.011h.368a2.195,2.195,0,0,1,1.023.184.655.655,0,0,1,.311.667.674.674,0,0,1-.333.621,1.359,1.359,0,0,1-.771.115q-.46-.023-1.173-.046L5.785-5.244,4.29-5.29q-.725-.023-1.185-.046a2.586,2.586,0,0,1-1.5-.4,1.476,1.476,0,0,1-.437-1.208q0-.322,0-.8T1.2-8.717q.023-.483.046-.92a4.3,4.3,0,0,1,.069-.644,1,1,0,0,1,.322-.679,1.423,1.423,0,0,1,.805-.218q.851-.046,1.691-.035t1.506.012a.877.877,0,0,0,.529-.1.5.5,0,0,0,.115-.379V-12.1q0-.253-.011-.529t-.011-.541v-.448a.2.2,0,0,0-.1-.161.324.324,0,0,0-.242-.046q-.414.046-1,.057t-1.2,0q-.61-.011-1.2-.035T1.5-13.869a1.241,1.241,0,0,1-.736-.264A.792.792,0,0,1,.575-14.7a.614.614,0,0,1,.253-.529A1.041,1.041,0,0,1,1.587-15.341Zm11.638.644a1.028,1.028,0,0,1,.161-.54.9.9,0,0,1,.69-.334.669.669,0,0,1,.6.172.875.875,0,0,1,.23.564v.287a1.208,1.208,0,0,1-.046.334q.046.736.057,1.564t.012,1.714v3.485q0,.184.023.437t.023.391a1.191,1.191,0,0,1-.207.644.663.663,0,0,1-.575.253.738.738,0,0,1-.805-.69,1.8,1.8,0,0,1,0-.575,4.112,4.112,0,0,0,.046-.575q0-.9-.046-1.552t-.046-1.323l-.828.046q-.437.023-1.035.046,0,.184-.011.575t-.012.851q0,.46,0,.92t.023.759a3.3,3.3,0,0,1,.012.725.649.649,0,0,1-.38.517.846.846,0,0,1-.77,0,1.035,1.035,0,0,1-.4-.782,14.166,14.166,0,0,1-.1-1.449Q9.8-9.223,9.8-10.385t.023-2.288q.023-1.127.046-1.886a.723.723,0,0,1,.264-.541.849.849,0,0,1,.609-.173.718.718,0,0,1,.564.288.808.808,0,0,1,.149.61q-.023.23-.035.587t-.011.724q0,.368,0,.69t0,.506q.46-.046.954-.057a6.422,6.422,0,0,0,1-.1q0-.322-.012-.771t-.011-.771a2.938,2.938,0,0,0-.057-.517A3.343,3.343,0,0,1,13.225-14.7ZM12.627.322a2.264,2.264,0,0,0,.426-.966,1.421,1.421,0,0,0-.115-.805,1.573,1.573,0,0,0-.563-.633,3.851,3.851,0,0,0-.943-.449,2.816,2.816,0,0,0-.678-.149q-.357-.035-.724-.035a5.506,5.506,0,0,0-.748.046,1.34,1.34,0,0,1-.564-.023A3.509,3.509,0,0,0,7.5-2.346a4.845,4.845,0,0,0-1.23.851A1.552,1.552,0,0,0,5.819-.23a1.236,1.236,0,0,0,.265.7,2.3,2.3,0,0,0,.644.552,3.319,3.319,0,0,0,.909.368,4.347,4.347,0,0,0,1.058.126q.552,0,1.139-.046a6.65,6.65,0,0,0,1.127-.184A4.462,4.462,0,0,0,11.937.92,1.881,1.881,0,0,0,12.627.322Zm11.8-4.669a1.174,1.174,0,0,1,.656-.322,4.931,4.931,0,0,1,.989-.092,8.26,8.26,0,0,1,1.069.069,8.078,8.078,0,0,1,.9.161A4.547,4.547,0,0,1,30.2-3.381a2.931,2.931,0,0,1,.713,2.231A3.87,3.87,0,0,1,30.694,0a2.839,2.839,0,0,1-.632,1.012,4,4,0,0,1-1.092.8,6.086,6.086,0,0,1-1.357.495,9.486,9.486,0,0,1-1.472.23,9.733,9.733,0,0,1-1.414.012,9.35,9.35,0,0,1-1.507-.23,5.184,5.184,0,0,1-1.46-.575A3.616,3.616,0,0,1,20.643.736a2.682,2.682,0,0,1-.472-1.541,2.642,2.642,0,0,1,.253-1.219,3.891,3.891,0,0,1,.759-1.093,4.448,4.448,0,0,1,1.15-.839,4.573,4.573,0,0,1,1.426-.46.928.928,0,0,1,.345-.023A1.766,1.766,0,0,1,24.426-4.347ZM17.779-15.2q.552-.046,1.529-.069l2.036-.046q1.058-.023,2.012-.012t1.483.035a1,1,0,0,1,1.035.6,1.448,1.448,0,0,1-.207,1.265q-.506.828-1.012,1.771T23.632-9.729q-.517.989-1.058,1.966T21.459-5.888a4.871,4.871,0,0,1-.391.713.789.789,0,0,1-.667.345,1.357,1.357,0,0,1-.782-.253.761.761,0,0,1-.311-.495,1.2,1.2,0,0,1,.058-.632.953.953,0,0,1,.356-.437,1.383,1.383,0,0,0,.4-.414q.368-.575.771-1.288T21.689-9.8q-.6,0-1.162.012t-.977.011a2.94,2.94,0,0,0-.587.069,4.989,4.989,0,0,1-.656.092.643.643,0,0,1-.587-.23,1.136,1.136,0,0,1-.219-.644.752.752,0,0,1,.242-.632,1.223,1.223,0,0,1,.725-.288q.3-.023.8-.046t1.093-.046q.587-.023,1.184-.035t1.081-.012l.9-1.725q.184-.391.149-.46t-.494-.069q-.506,0-1.323.023t-1.645.035q-.828.011-1.518.035t-.943.023a.751.751,0,0,1-.563-.15.74.74,0,0,1-.242-.448.74.74,0,0,1,.184-.6A.935.935,0,0,1,17.779-15.2ZM28.75-.138a2.264,2.264,0,0,0,.425-.966,1.421,1.421,0,0,0-.115-.805,1.573,1.573,0,0,0-.563-.632,3.851,3.851,0,0,0-.943-.449,2.816,2.816,0,0,0-.679-.149q-.356-.035-.724-.035a5.506,5.506,0,0,0-.747.046,1.34,1.34,0,0,1-.564-.023,3.509,3.509,0,0,0-1.219.345,4.845,4.845,0,0,0-1.23.851A1.552,1.552,0,0,0,21.942-.69a1.236,1.236,0,0,0,.264.7,2.3,2.3,0,0,0,.644.552,3.319,3.319,0,0,0,.909.368,4.347,4.347,0,0,0,1.058.127q.552,0,1.139-.046A6.65,6.65,0,0,0,27.083.828,4.462,4.462,0,0,0,28.06.46,1.881,1.881,0,0,0,28.75-.138Zm.483-6.256q-.069-.759-.115-1.736t-.046-2.013q0-1.035.023-2.047t.092-1.84q.115-.828.828-.828a.8.8,0,0,1,.587.242.85.85,0,0,1,.218.679q-.046,1.127-.08,2.288t-.035,2.5q0,.736.057,1.46t.057,1.415a.659.659,0,0,1-.23.564.858.858,0,0,1-.529.172.8.8,0,0,1-.552-.207A.969.969,0,0,1,29.233-6.394ZM33.764-1.38q.184-.023.563-.034t.816-.012h1.5q.3,0,.541-.011t.425-.012q-.046-.851-.046-1.323V-4.692q-.529.046-1.219.081t-1.15.081a1.2,1.2,0,0,1-1.069-.276A1.49,1.49,0,0,1,33.833-6q.138-1.679.184-3.324t.023-2.84q0-.736-.069-1.61a1,1,0,0,1,.2-.759.745.745,0,0,1,.7-.253.826.826,0,0,1,.575.218.9.9,0,0,1,.23.495,4.713,4.713,0,0,1,.046.667v1.231q0,.287-.011.564t-.012.575v.69q.621-.069,1.391-.1t1.587-.046q.816-.011,1.621,0t1.541.035q.023-.368.046-.679t.057-.6q.034-.287.081-.6t.115-.7a1.218,1.218,0,0,0,0-.472,1.22,1.22,0,0,1-.023-.4.744.744,0,0,1,.242-.6.9.9,0,0,1,.517-.23.87.87,0,0,1,.656.207.84.84,0,0,1,.311.759l-.115.851q-.115.943-.173,1.759T43.47-9.545q-.023.805,0,1.622t.069,1.736a1.906,1.906,0,0,1-.23,1.311.974.974,0,0,1-.874.184q-.529-.046-1.357-.08t-1.7-.011q-.046.805-.035,1.644t.035,1.714a15.2,15.2,0,0,1,1.564-.011,15.686,15.686,0,0,0,1.587-.012q.3-.069.575-.127a1.486,1.486,0,0,1,.552-.012,1.235,1.235,0,0,1,.736.242.614.614,0,0,1,.184.518.947.947,0,0,1-.92.874,3.644,3.644,0,0,1-.782.046Q42.55.069,42.136.069H39.721q-.552,0-1.518-.011t-2-.012H35.018q-.311,0-.586.012t-.437.035a1.072,1.072,0,0,1-.759-.115.692.692,0,0,1-.322-.483Q32.844-1.288,33.764-1.38Zm8.142-5.244q-.046-.575-.069-1.138t-.023-1.161q-.69-.023-1.484-.035t-1.61.012q-.817.023-1.61.057t-1.461.1l-.138,2.277q-.046.414.161.391.713-.092,1.483-.15t1.518-.069q.747-.012,1.438,0t1.219.057q.391.046.494-.046A.33.33,0,0,0,41.906-6.624Zm6.578,3.611q.552-.759,1.254-1.771t1.449-2.1q.747-1.092,1.507-2.185t1.426-2.012q-1.311-.069-2.967-.127t-3.68-.241a.868.868,0,0,1-.771-.425,1.007,1.007,0,0,1-.08-.771,1.03,1.03,0,0,1,.333-.448.814.814,0,0,1,.632-.15,2.7,2.7,0,0,1,.517.092,2.7,2.7,0,0,0,.518.092q1.587.161,3.093.241t2.979.126a1.678,1.678,0,0,1,.874.2,1.039,1.039,0,0,1,.449.529,1.349,1.349,0,0,1,.046.747,2.281,2.281,0,0,1-.356.828q-.69,1.1-1.426,2.2L52.854-6.084q-.69,1.024-1.311,1.909T50.416-2.6q-.069.253-.173.552a2.174,2.174,0,0,1-.356.621,1.5,1.5,0,0,1-.9.587,1.048,1.048,0,0,1-.874-.242.889.889,0,0,1-.287-.908A2.168,2.168,0,0,1,48.484-3.013ZM61.364-.276A.785.785,0,0,1,61.18.3a1.186,1.186,0,0,1-.575.276.93.93,0,0,1-.748-.2.891.891,0,0,1-.288-.633,2.335,2.335,0,0,1-.023-.552q.023-.23.023-.483,0-.46-.023-1.277T59.478-4.37q-.046-.989-.1-2.058t-.1-2.036q-.046-.966-.092-1.759t-.069-1.231l-.092-.736q-.046-.368-.092-.69a.882.882,0,0,1,.092-.621.729.729,0,0,1,.621-.345q.9-.115,1.058.874l.184,1.15q.046.46.092,1.276t.081,1.817q.034,1,.081,2.093t.069,2.1q.023,1.012.035,1.863t.011,1.38q.023.184.046.506A3.1,3.1,0,0,0,61.364-.276Z" transform="translate(6217.94 -4590.708)"/>
  </g>
</svg>
