<svg xmlns="http://www.w3.org/2000/svg" xmlns:xlink="http://www.w3.org/1999/xlink" width="143.885" height="121.813" viewBox="0 0 143.885 121.813">
  <defs>
    <linearGradient id="linear-gradient" x1="0.5" x2="0.5" y2="1" gradientUnits="objectBoundingBox">
      <stop offset="0" stop-color="red"/>
      <stop offset="0.167" stop-color="#ffa60c"/>
      <stop offset="0.289" stop-color="#ff0"/>
      <stop offset="0.439" stop-color="#6eff00"/>
      <stop offset="0.552" stop-color="#00dcff"/>
      <stop offset="0.644" stop-color="#00a4ff"/>
      <stop offset="0.741" stop-color="#003cff"/>
      <stop offset="0.837" stop-color="#8000ff"/>
      <stop offset="0.925" stop-color="#ff00c4"/>
      <stop offset="1" stop-color="red"/>
    </linearGradient>
    <filter id="패스_78" x="0" y="0" width="143.885" height="121.813" filterUnits="userSpaceOnUse">
      <feOffset dy="3" input="SourceAlpha"/>
      <feGaussianBlur stdDeviation="3" result="blur"/>
      <feFlood flood-opacity="0.161"/>
      <feComposite operator="in" in2="blur"/>
      <feComposite in="SourceGraphic"/>
    </filter>
  </defs>
  <g id="그룹_91" data-name="그룹 91" transform="translate(-6335.915 4668.024)">
    <g id="그룹_90" data-name="그룹 90">
      <g id="그룹_77" data-name="그룹 77" transform="translate(6346 -4661)">
        <g transform="matrix(1, 0, 0, 1, -10.08, -7.02)" filter="url(#패스_78)">
          <path id="패스_78-2" data-name="패스 78" d="M42.418,51.478a86.046,86.046,0,0,0-21.4-4.305,7.04,7.04,0,0,0-3.793.457,5.324,5.324,0,0,0-2.19,2.757,18.617,18.617,0,0,0,.123,15.024c1.71,3.776,4.64,7,6.61,10.671,6.344,11.82,2.142,26.9,9.741,38.1,4.366,6.436,12.179,10.568,20.359,12.106s16.711.706,24.822-1.107c19.851-4.435,38.009-14.839,50.914-29.171,3.314-3.679,6.323-7.668,8.032-12.154,3.543-9.3,1.114-19.582-2.529-28.854-1.719-4.377-3.781-8.782-7.346-12.127s-8.944-5.459-13.918-4.288c-4.214.99-9.218,3.976-12.225,1.131a8.341,8.341,0,0,1-1.789-3.545A16.371,16.371,0,0,0,87.735,25.909c-4.942-1.594-11.2-.049-13.746,4.1" transform="translate(-3.43 -18.27)" stroke="#000" stroke-miterlimit="10" stroke-width="2" fill="url(#linear-gradient)"/>
        </g>
      </g>
    </g>
    <path id="패스_82" data-name="패스 82" d="M7.429-13.156a2.986,2.986,0,0,1,1.414.184.821.821,0,0,1,.333.759.734.734,0,0,1-.368.679,1.591,1.591,0,0,1-.828.219.848.848,0,0,1-.31-.069q-.173-.069-.425-.184-.322-.023-.9-.035l-1.185-.023q-.61-.011-1.161-.012H3.151Q3.1-9.545,3.094-7.659t.08,3.979A2.437,2.437,0,0,0,3.393-2.6a.844.844,0,0,0,.656.3q.368.023,1.012.046t1.357.035q.713.012,1.391.034t1.139.046a5.879,5.879,0,0,1,.805-.069,1.176,1.176,0,0,1,.782.218.736.736,0,0,1,.253.586q0,.9-.943.9A2.128,2.128,0,0,1,9.35-.564a3.369,3.369,0,0,1-.472-.15Q8.533-.736,7.8-.748T6.268-.782Q5.474-.8,4.738-.817T3.657-.851A8.746,8.746,0,0,1,2.438-.989a1.185,1.185,0,0,1-.656-.333A1.275,1.275,0,0,1,1.5-1.99q-.069-.426-.115-1.162-.046-.92-.069-1.575T1.288-6.164V-8.211q0-1.38.092-3.611a.931.931,0,0,1-.679-.46.975.975,0,0,1-.058-.736.61.61,0,0,1,.564-.425,3.031,3.031,0,0,1,1,.057,9.406,9.406,0,0,0,1,.115q.632.046,1.368.069t1.495.034Q6.831-13.156,7.429-13.156ZM17-7.13a4.006,4.006,0,0,1-.782-.035,5.446,5.446,0,0,1-.69-.126L13.869-7.36q-.023.46-.035.84t-.012.771v1.932q0,1.311.023,2.358T13.915.391a1.3,1.3,0,0,1-.253.9.872.872,0,0,1-.713.345.638.638,0,0,1-.69-.414,2.6,2.6,0,0,1-.138-.828q-.046-1.265-.046-2.829T12.1-5.612q.023-1.61.046-3.151t.023-2.76q0-.46-.023-1.081t-.046-.989a.732.732,0,0,1,.23-.633.885.885,0,0,1,.6-.218,1.089,1.089,0,0,1,.632.218.749.749,0,0,1,.311.656q0,.322-.012.495t-.011.287v3.91a3.58,3.58,0,0,0,.4.035l.575.023q.31.011.633.012h.552A5.791,5.791,0,0,1,17-8.9q.92,0,.92.736a1.232,1.232,0,0,1-.2.69A.9.9,0,0,1,17-7.13Zm8.832-5.106-2,3.864q.575.667,1.2,1.4T26.243-5.5q.6.736,1.173,1.472t1.1,1.38a.962.962,0,0,1-.161,1.4.8.8,0,0,1-.678.2,1.141,1.141,0,0,1-.587-.426q-.46-.552-.977-1.2T25.07-3.979L24-5.325Q23.46-6,22.954-6.624q-.69,1.4-1.322,2.749t-1.024,2.4q-.253.6-.633.69a.925.925,0,0,1-.7-.092,1.263,1.263,0,0,1-.391-.552.91.91,0,0,1,.046-.69q.46-1.2,1.162-2.7t1.472-3.024q.77-1.518,1.518-2.91t1.276-2.358a.807.807,0,0,1,.529-.448.739.739,0,0,1,.667.057.791.791,0,0,1,.437.552A1.175,1.175,0,0,1,25.829-12.236Zm5.75,8.694q0-1.15,0-2.415t0-2.53q0-1.265.011-2.507t.035-2.346a1.24,1.24,0,0,1,.253-.771.8.8,0,0,1,.667-.333.82.82,0,0,1,.736.345,1.254,1.254,0,0,1,.207.782q-.023,1.035-.035,2.277t-.011,2.53V-.046a1.31,1.31,0,0,1-.23.782.817.817,0,0,1-.713.322.965.965,0,0,1-.713-.276,1.072,1.072,0,0,1-.23-.874q.046-.989.046-1.737T31.579-3.542Zm5.589-.667a3.883,3.883,0,0,1,.7-1.633A5.251,5.251,0,0,1,39.2-7.107a6.576,6.576,0,0,1,1.817-.828,8.942,8.942,0,0,1,2.15-.345,5.067,5.067,0,0,1,1.737.241,3.8,3.8,0,0,1,1.357.771,3.489,3.489,0,0,1,.874,1.219A3.4,3.4,0,0,1,47.4-4.485a5.739,5.739,0,0,1-.632,2.461A4.314,4.314,0,0,1,45.4-.506,5.3,5.3,0,0,1,43.55.265a11.1,11.1,0,0,1-2.082.242A4.981,4.981,0,0,1,39.709.3a4,4,0,0,1-1.38-.748,3.374,3.374,0,0,1-.909-1.208,3.87,3.87,0,0,1-.322-1.61A6.349,6.349,0,0,1,37.168-4.209Zm1.656.368a2.154,2.154,0,0,0,.552,2.059,2.855,2.855,0,0,0,2.162.7,6.906,6.906,0,0,0,1.438-.2,3.781,3.781,0,0,0,1.265-.564,3.317,3.317,0,0,0,.954-1.046A4.117,4.117,0,0,0,45.7-4.531a1.962,1.962,0,0,0-.771-1.53,2.761,2.761,0,0,0-1.921-.564,5.748,5.748,0,0,0-1.6.3,4.7,4.7,0,0,0-1.254.644,3.936,3.936,0,0,0-.874.874A2.777,2.777,0,0,0,38.824-3.841ZM51.911-5.865q-.046.506-.057,1.116t0,1.242q.011.633.023,1.242t.011,1.116A2.358,2.358,0,0,1,52-.069a1,1,0,0,1-.4.61,1.105,1.105,0,0,1-.771.173q-.6,0-.713-.334a1.7,1.7,0,0,1-.069-.748l.115-1.242q.023-.368.035-1.093t.011-1.564q0-.839.012-1.656t.035-1.345l.207-5.014a.91.91,0,0,1,.276-.747.84.84,0,0,1,.552-.149.991.991,0,0,1,.609.218.833.833,0,0,1,.265.748q-.023.6-.058,1.622t-.08,2.127h1.357q.3,0,.851.023a8.229,8.229,0,0,1,.851.069.726.726,0,0,1,.644.3,1.052,1.052,0,0,1,.161.529.838.838,0,0,1-.184.517.733.733,0,0,1-.621.241h-.356q-.219,0-.46-.011t-.46-.011H51.957q-.023.276-.035.517T51.911-5.865Zm-15.617-4.14a.888.888,0,0,1-.621-.241.756.756,0,0,1-.207-.541q0-.69.828-.667.759,0,1.622.023t1.759.057q.9.034,1.783.08T43.1-11.2q.506.023,1.1.057t1.15.057q.552.023.978.046t.563.023a1.526,1.526,0,0,1,.909.288.769.769,0,0,1,.311.679,1.012,1.012,0,0,1-.264.541.674.674,0,0,1-.633.241,4.894,4.894,0,0,1-.8-.069,3.461,3.461,0,0,1-.518-.138,2.228,2.228,0,0,0-.563-.115l-3.289-.138Q40.917-9.8,39.5-9.856T36.294-10.005Zm1.288-3.151a.871.871,0,0,1-.621-.276.831.831,0,0,1-.23-.575.839.839,0,0,1,.207-.564.834.834,0,0,1,.667-.241h.978q.54,0,1.127.012t1.161.035l1.1.046a3.225,3.225,0,0,1,.345.023,3.372,3.372,0,0,0,.368.023q.138,0,.333.011l.368.023q.173.011.276.011h.1a.85.85,0,0,1,.7.368.931.931,0,0,1,.172.552,1.159,1.159,0,0,1-.207.609.726.726,0,0,1-.391.253,1.135,1.135,0,0,1-.483.012,2.5,2.5,0,0,1-.483-.138,2.58,2.58,0,0,0-.632-.1q-.448-.035-1.035-.058t-1.242-.023H37.582ZM58.742-3.013Q59.294-3.772,60-4.784t1.449-2.1q.747-1.092,1.507-2.185t1.426-2.012q-1.311-.069-2.967-.127t-3.68-.241a.868.868,0,0,1-.771-.425,1.007,1.007,0,0,1-.08-.771,1.03,1.03,0,0,1,.333-.448.814.814,0,0,1,.632-.15,2.7,2.7,0,0,1,.517.092,2.7,2.7,0,0,0,.518.092q1.587.161,3.093.241t2.979.126a1.678,1.678,0,0,1,.874.2,1.038,1.038,0,0,1,.448.529,1.349,1.349,0,0,1,.046.747,2.281,2.281,0,0,1-.356.828q-.69,1.1-1.426,2.2L63.112-6.084Q62.422-5.06,61.8-4.174T60.674-2.6q-.069.253-.172.552a2.174,2.174,0,0,1-.357.621,1.5,1.5,0,0,1-.9.587,1.048,1.048,0,0,1-.874-.242.889.889,0,0,1-.287-.908A2.168,2.168,0,0,1,58.742-3.013ZM71.622-.276A.785.785,0,0,1,71.438.3a1.186,1.186,0,0,1-.575.276.93.93,0,0,1-.747-.2.891.891,0,0,1-.287-.633,2.335,2.335,0,0,1-.023-.552q.023-.23.023-.483,0-.46-.023-1.277T69.736-4.37q-.046-.989-.1-2.058t-.1-2.036q-.046-.966-.092-1.759t-.069-1.231l-.092-.736q-.046-.368-.092-.69a.882.882,0,0,1,.092-.621.729.729,0,0,1,.621-.345q.9-.115,1.058.874l.184,1.15q.046.46.092,1.276t.08,1.817q.035,1,.08,2.093t.069,2.1q.023,1.012.035,1.863t.012,1.38q.023.184.046.506A3.1,3.1,0,0,0,71.622-.276Z" transform="translate(6374.853 -4600.708)"/>
    <path id="패스_80" data-name="패스 80" d="M794.583,482.75,762,505" transform="translate(5612.333 -5139.333)" fill="none" stroke="#000" stroke-width="2"/>
  </g>
</svg>
